<svg width="164" height="158" viewBox="0 0 164 158" fill="none" xmlns="http://www.w3.org/2000/svg">
<rect x="1" y="0.5" width="161.875" height="38" rx="2.5" fill="#0C0F1A"/>
<rect x="1" y="0.5" width="161.875" height="38" rx="2.5" stroke="#313440"/>
<path d="M26.1364 13.3636V25H24.7727L18.4318 15.8636H18.3182V25H16.9091V13.3636H18.2727L24.6364 22.5227H24.75V13.3636H26.1364ZM32.4332 25.1818C31.5923 25.1818 30.867 24.9962 30.2571 24.625C29.651 24.25 29.1832 23.7273 28.8537 23.0568C28.5279 22.3826 28.3651 21.5985 28.3651 20.7045C28.3651 19.8106 28.5279 19.0227 28.8537 18.3409C29.1832 17.6553 29.6416 17.1212 30.2287 16.7386C30.8196 16.3523 31.509 16.1591 32.2969 16.1591C32.7514 16.1591 33.2003 16.2348 33.6435 16.3864C34.0866 16.5379 34.4901 16.7841 34.8537 17.125C35.2173 17.4621 35.5071 17.9091 35.723 18.4659C35.9389 19.0227 36.0469 19.7083 36.0469 20.5227V21.0909H29.3196V19.9318H34.6832C34.6832 19.4394 34.5848 19 34.3878 18.6136C34.1946 18.2273 33.9181 17.9223 33.5582 17.6989C33.2022 17.4754 32.7817 17.3636 32.2969 17.3636C31.7628 17.3636 31.3007 17.4962 30.9105 17.7614C30.5241 18.0227 30.2268 18.3636 30.0185 18.7841C29.8101 19.2045 29.706 19.6553 29.706 20.1364V20.9091C29.706 21.5682 29.8196 22.1269 30.0469 22.5852C30.2779 23.0398 30.598 23.3864 31.0071 23.625C31.4162 23.8598 31.8916 23.9773 32.4332 23.9773C32.7855 23.9773 33.1037 23.928 33.3878 23.8295C33.6757 23.7273 33.9238 23.5758 34.1321 23.375C34.3404 23.1705 34.5014 22.9167 34.6151 22.6136L35.9105 22.9773C35.7741 23.4167 35.545 23.803 35.223 24.1364C34.901 24.4659 34.5033 24.7235 34.0298 24.9091C33.5563 25.0909 33.0241 25.1818 32.4332 25.1818ZM41.8821 16.2727V17.4091H37.3594V16.2727H41.8821ZM38.6776 14.1818H40.0185V22.5C40.0185 22.8788 40.0734 23.1629 40.1832 23.3523C40.2969 23.5379 40.4408 23.6629 40.6151 23.7273C40.7931 23.7879 40.9806 23.8182 41.1776 23.8182C41.3253 23.8182 41.4465 23.8106 41.5412 23.7955C41.6359 23.7765 41.7116 23.7614 41.7685 23.75L42.0412 24.9545C41.9503 24.9886 41.8234 25.0227 41.6605 25.0568C41.4976 25.0947 41.2912 25.1136 41.0412 25.1136C40.6624 25.1136 40.2912 25.0322 39.9276 24.8693C39.5677 24.7064 39.2685 24.4583 39.0298 24.125C38.795 23.7917 38.6776 23.3712 38.6776 22.8636V14.1818ZM45.8764 25L43.2173 16.2727H44.6264L46.5128 22.9545H46.6037L48.4673 16.2727H49.8991L51.7401 22.9318H51.831L53.7173 16.2727H55.1264L52.4673 25H51.1491L49.2401 18.2955H49.1037L47.1946 25H45.8764ZM60.1477 25.1818C59.3598 25.1818 58.6686 24.9943 58.0739 24.6193C57.483 24.2443 57.0208 23.7197 56.6875 23.0455C56.358 22.3712 56.1932 21.5833 56.1932 20.6818C56.1932 19.7727 56.358 18.9792 56.6875 18.3011C57.0208 17.6231 57.483 17.0966 58.0739 16.7216C58.6686 16.3466 59.3598 16.1591 60.1477 16.1591C60.9356 16.1591 61.625 16.3466 62.2159 16.7216C62.8106 17.0966 63.2727 17.6231 63.6023 18.3011C63.9356 18.9792 64.1023 19.7727 64.1023 20.6818C64.1023 21.5833 63.9356 22.3712 63.6023 23.0455C63.2727 23.7197 62.8106 24.2443 62.2159 24.6193C61.625 24.9943 60.9356 25.1818 60.1477 25.1818ZM60.1477 23.9773C60.7462 23.9773 61.2386 23.8239 61.625 23.517C62.0114 23.2102 62.2973 22.8068 62.483 22.3068C62.6686 21.8068 62.7614 21.2652 62.7614 20.6818C62.7614 20.0985 62.6686 19.5549 62.483 19.0511C62.2973 18.5473 62.0114 18.1402 61.625 17.8295C61.2386 17.5189 60.7462 17.3636 60.1477 17.3636C59.5492 17.3636 59.0568 17.5189 58.6705 17.8295C58.2841 18.1402 57.9981 18.5473 57.8125 19.0511C57.6269 19.5549 57.5341 20.0985 57.5341 20.6818C57.5341 21.2652 57.6269 21.8068 57.8125 22.3068C57.9981 22.8068 58.2841 23.2102 58.6705 23.517C59.0568 23.8239 59.5492 23.9773 60.1477 23.9773ZM66.1491 25V16.2727H67.4446V17.5909H67.5355C67.6946 17.1591 67.9825 16.8087 68.3991 16.5398C68.8158 16.2708 69.2855 16.1364 69.8082 16.1364C69.9067 16.1364 70.0298 16.1383 70.1776 16.142C70.3253 16.1458 70.437 16.1515 70.5128 16.1591V17.5227C70.4673 17.5114 70.3632 17.4943 70.2003 17.4716C70.0412 17.4451 69.8726 17.4318 69.6946 17.4318C69.2704 17.4318 68.8916 17.5208 68.5582 17.6989C68.2287 17.8731 67.9673 18.1155 67.7741 18.4261C67.5848 18.733 67.4901 19.0833 67.4901 19.4773V25H66.1491ZM73.3523 21.8182L73.3295 20.1591H73.6023L77.4205 16.2727H79.0795L75.0114 20.3864H74.8977L73.3523 21.8182ZM72.1023 25V13.3636H73.4432V25H72.1023ZM77.6477 25L74.2386 20.6818L75.1932 19.75L79.3523 25H77.6477Z" fill="white" fill-opacity="0.7"/>
<path d="M148.25 15.5H147.078C146.999 15.5 146.924 15.5391 146.877 15.6031L142.438 21.7219L137.999 15.6031C137.952 15.5391 137.877 15.5 137.797 15.5H136.625C136.524 15.5 136.464 15.6156 136.524 15.6984L142.033 23.2937C142.233 23.5687 142.642 23.5687 142.841 23.2937L148.35 15.6984C148.411 15.6156 148.352 15.5 148.25 15.5Z" fill="white" fill-opacity="0.68"/>
<rect x="1" y="61.5" width="162" height="39" rx="2.5" fill="url(#paint0_linear_1_2942)" fill-opacity="0.2"/>
<rect x="1" y="61.5" width="162" height="39" rx="2.5" stroke="#AA8DFE"/>
<path d="M58.0034 77.5673L47.7177 74.1261C47.5765 74.0784 47.4239 74.0784 47.2823 74.1261L36.9966 77.5673C36.7134 77.6623 36.5241 77.9294 36.5286 78.228C36.533 78.5266 36.7305 78.7882 37.0165 78.8743L39.8142 79.717V81.9892C39.8142 82.1599 39.9524 82.3248 40.0676 82.4513C40.131 82.5209 40.5424 82.8765 40.9415 83.0393C41.0265 83.0743 41.114 83.0904 41.2004 83.0904C41.4709 83.0904 41.69 82.9289 41.7983 82.6632C41.9413 82.3128 41.7356 81.9127 41.3852 81.7697C41.3533 81.7567 41.5285 81.7265 41.1856 81.6895V80.1346L42.2142 80.4501V85.98C41.8926 86.1538 41.6714 86.4902 41.6714 86.881C41.6714 87.4488 42.1319 87.9096 42.7 87.9096C43.2681 87.9096 43.7286 87.4488 43.7286 86.881C43.7286 86.6925 43.6741 86.518 43.5856 86.3664V80.8704L44.9084 81.276L47.3084 81.9744C47.3711 81.9929 47.4356 82.0018 47.5 82.0018C47.5665 82.0018 47.6334 81.9922 47.6978 81.9727L53.1856 80.3194V81.8503C52.8428 82.2686 50.9457 83.3733 47.2586 83.3733C46.43 83.3733 45.8049 83.3335 45.1946 83.2512C44.8189 83.2039 44.474 83.4641 44.4236 83.8396C44.3732 84.215 44.6365 84.5602 45.0116 84.6106C45.6829 84.7012 46.4423 84.745 47.3327 84.745C52.5301 84.745 54.3726 82.7092 54.4514 82.6228C54.5666 82.4966 54.5567 82.3317 54.5567 82.1606V79.9838C54.5567 79.9581 54.5519 79.9337 54.5492 79.9087L57.9836 78.8743C58.2695 78.7882 58.4666 78.5266 58.4714 78.228C58.4759 77.9294 58.2866 77.6623 58.0034 77.5673ZM47.4966 80.6009L45.3009 79.9622L44.4335 79.6961L47.8233 78.5071C48.1802 78.3802 48.4316 77.9877 48.3044 77.6311C48.1772 77.2742 47.7657 77.088 47.4095 77.2152L42.7442 78.864C42.6236 78.9069 42.508 78.9823 42.4144 79.0769L40.8033 78.5829L39.4782 78.1838L47.5 75.4996L55.5218 78.1834L47.4966 80.6009Z" fill="white" fill-opacity="0.85"/>
<path d="M49.4234 79.451C49.4563 79.451 49.4896 79.4462 49.5225 79.4363L51.1607 78.9429C51.3421 78.8884 51.4449 78.6971 51.3901 78.516C51.3355 78.335 51.1442 78.2301 50.9632 78.2867L49.325 78.78C49.144 78.8345 49.0411 79.0259 49.0957 79.2069C49.1402 79.3553 49.2763 79.451 49.4234 79.451Z" fill="white" fill-opacity="0.85"/>
<path d="M52.2613 78.6254C52.2938 78.6254 52.3271 78.6206 52.36 78.6106L53.1236 78.3806C53.3049 78.326 53.4078 78.1347 53.3529 77.9537C53.2984 77.7727 53.1074 77.6684 52.9261 77.7243L52.1625 77.9544C51.9812 78.0089 51.8783 78.2002 51.9332 78.3812C51.9777 78.5297 52.1138 78.6254 52.2613 78.6254Z" fill="white" fill-opacity="0.85"/>
<path d="M64.2727 76.1136V74.8636H73V76.1136H69.3409V86.5H67.9318V76.1136H64.2727ZM79.3054 82.9318V77.7727H80.6463V86.5H79.3054V85.0227H79.2145C79.0099 85.4659 78.6918 85.8428 78.2599 86.1534C77.8281 86.4602 77.2827 86.6136 76.6236 86.6136C76.0781 86.6136 75.5933 86.4943 75.169 86.2557C74.7448 86.0133 74.4115 85.6496 74.169 85.1648C73.9266 84.6761 73.8054 84.0606 73.8054 83.3182V77.7727H75.1463V83.2273C75.1463 83.8636 75.3243 84.3712 75.6804 84.75C76.0402 85.1288 76.4986 85.3182 77.0554 85.3182C77.3887 85.3182 77.7277 85.233 78.0724 85.0625C78.4209 84.892 78.7126 84.6307 78.9474 84.2784C79.1861 83.9261 79.3054 83.4773 79.3054 82.9318ZM86.8977 77.7727V78.9091H82.375V77.7727H86.8977ZM83.6932 75.6818H85.0341V84C85.0341 84.3788 85.089 84.6629 85.1989 84.8523C85.3125 85.0379 85.4564 85.1629 85.6307 85.2273C85.8087 85.2879 85.9962 85.3182 86.1932 85.3182C86.3409 85.3182 86.4621 85.3106 86.5568 85.2955C86.6515 85.2765 86.7273 85.2614 86.7841 85.25L87.0568 86.4545C86.9659 86.4886 86.839 86.5227 86.6761 86.5568C86.5133 86.5947 86.3068 86.6136 86.0568 86.6136C85.678 86.6136 85.3068 86.5322 84.9432 86.3693C84.5833 86.2064 84.2841 85.9583 84.0455 85.625C83.8106 85.2917 83.6932 84.8712 83.6932 84.3636V75.6818ZM92.3665 86.6818C91.5786 86.6818 90.8873 86.4943 90.2926 86.1193C89.7017 85.7443 89.2396 85.2197 88.9062 84.5455C88.5767 83.8712 88.4119 83.0833 88.4119 82.1818C88.4119 81.2727 88.5767 80.4792 88.9062 79.8011C89.2396 79.1231 89.7017 78.5966 90.2926 78.2216C90.8873 77.8466 91.5786 77.6591 92.3665 77.6591C93.1544 77.6591 93.8438 77.8466 94.4347 78.2216C95.0294 78.5966 95.4915 79.1231 95.821 79.8011C96.1544 80.4792 96.321 81.2727 96.321 82.1818C96.321 83.0833 96.1544 83.8712 95.821 84.5455C95.4915 85.2197 95.0294 85.7443 94.4347 86.1193C93.8438 86.4943 93.1544 86.6818 92.3665 86.6818ZM92.3665 85.4773C92.965 85.4773 93.4574 85.3239 93.8438 85.017C94.2301 84.7102 94.5161 84.3068 94.7017 83.8068C94.8873 83.3068 94.9801 82.7652 94.9801 82.1818C94.9801 81.5985 94.8873 81.0549 94.7017 80.5511C94.5161 80.0473 94.2301 79.6402 93.8438 79.3295C93.4574 79.0189 92.965 78.8636 92.3665 78.8636C91.768 78.8636 91.2756 79.0189 90.8892 79.3295C90.5028 79.6402 90.2169 80.0473 90.0312 80.5511C89.8456 81.0549 89.7528 81.5985 89.7528 82.1818C89.7528 82.7652 89.8456 83.3068 90.0312 83.8068C90.2169 84.3068 90.5028 84.7102 90.8892 85.017C91.2756 85.3239 91.768 85.4773 92.3665 85.4773ZM98.3679 86.5V77.7727H99.6634V79.0909H99.7543C99.9134 78.6591 100.201 78.3087 100.618 78.0398C101.035 77.7708 101.504 77.6364 102.027 77.6364C102.125 77.6364 102.249 77.6383 102.396 77.642C102.544 77.6458 102.656 77.6515 102.732 77.6591V79.0227C102.686 79.0114 102.582 78.9943 102.419 78.9716C102.26 78.9451 102.091 78.9318 101.913 78.9318C101.489 78.9318 101.11 79.0208 100.777 79.1989C100.447 79.3731 100.186 79.6155 99.9929 79.9261C99.8035 80.233 99.7088 80.5833 99.7088 80.9773V86.5H98.3679ZM104.321 86.5V77.7727H105.662V86.5H104.321ZM105.003 76.3182C104.741 76.3182 104.516 76.2292 104.327 76.0511C104.141 75.8731 104.048 75.6591 104.048 75.4091C104.048 75.1591 104.141 74.9451 104.327 74.767C104.516 74.589 104.741 74.5 105.003 74.5C105.264 74.5 105.488 74.589 105.673 74.767C105.863 74.9451 105.957 75.1591 105.957 75.4091C105.957 75.6591 105.863 75.8731 105.673 76.0511C105.488 76.2292 105.264 76.3182 105.003 76.3182ZM110.686 86.7045C110.133 86.7045 109.631 86.6004 109.18 86.392C108.73 86.1799 108.372 85.875 108.107 85.4773C107.841 85.0758 107.709 84.5909 107.709 84.0227C107.709 83.5227 107.807 83.1174 108.004 82.8068C108.201 82.4924 108.464 82.2462 108.794 82.0682C109.124 81.8902 109.487 81.7576 109.885 81.6705C110.286 81.5795 110.69 81.5076 111.095 81.4545C111.625 81.3864 112.055 81.3352 112.385 81.3011C112.718 81.2633 112.961 81.2008 113.112 81.1136C113.268 81.0265 113.345 80.875 113.345 80.6591V80.6136C113.345 80.053 113.192 79.6174 112.885 79.3068C112.582 78.9962 112.122 78.8409 111.504 78.8409C110.864 78.8409 110.362 78.9811 109.999 79.2614C109.635 79.5417 109.379 79.8409 109.232 80.1591L107.959 79.7045C108.186 79.1742 108.489 78.7614 108.868 78.4659C109.25 78.1667 109.667 77.9583 110.118 77.8409C110.572 77.7197 111.019 77.6591 111.459 77.6591C111.739 77.6591 112.061 77.6932 112.425 77.7614C112.792 77.8258 113.146 77.9602 113.487 78.1648C113.832 78.3693 114.118 78.678 114.345 79.0909C114.572 79.5038 114.686 80.0568 114.686 80.75V86.5H113.345V85.3182H113.277C113.186 85.5076 113.035 85.7102 112.822 85.9261C112.61 86.142 112.328 86.3258 111.976 86.4773C111.624 86.6288 111.194 86.7045 110.686 86.7045ZM110.891 85.5C111.421 85.5 111.868 85.3958 112.232 85.1875C112.599 84.9792 112.875 84.7102 113.061 84.3807C113.25 84.0511 113.345 83.7045 113.345 83.3409V82.1136C113.288 82.1818 113.163 82.2443 112.97 82.3011C112.781 82.3542 112.561 82.4015 112.311 82.4432C112.065 82.4811 111.824 82.5152 111.589 82.5455C111.358 82.572 111.171 82.5947 111.027 82.6136C110.679 82.6591 110.353 82.733 110.05 82.8352C109.75 82.9337 109.508 83.0833 109.322 83.2841C109.141 83.4811 109.05 83.75 109.05 84.0909C109.05 84.5568 109.222 84.9091 109.567 85.1477C109.915 85.3826 110.357 85.5 110.891 85.5ZM118.474 74.8636V86.5H117.134V74.8636H118.474ZM127.112 79.7273L125.908 80.0682C125.832 79.8674 125.72 79.6723 125.572 79.483C125.429 79.2898 125.232 79.1307 124.982 79.0057C124.732 78.8807 124.411 78.8182 124.021 78.8182C123.487 78.8182 123.042 78.9413 122.686 79.1875C122.334 79.4299 122.158 79.7386 122.158 80.1136C122.158 80.447 122.279 80.7102 122.521 80.9034C122.764 81.0966 123.143 81.2576 123.658 81.3864L124.953 81.7045C125.733 81.8939 126.315 82.1837 126.697 82.5739C127.08 82.9602 127.271 83.4583 127.271 84.0682C127.271 84.5682 127.127 85.0152 126.839 85.4091C126.555 85.803 126.158 86.1136 125.646 86.3409C125.135 86.5682 124.54 86.6818 123.862 86.6818C122.972 86.6818 122.235 86.4886 121.652 86.1023C121.069 85.7159 120.699 85.1515 120.544 84.4091L121.817 84.0909C121.938 84.5606 122.167 84.9129 122.504 85.1477C122.845 85.3826 123.29 85.5 123.839 85.5C124.464 85.5 124.961 85.3674 125.328 85.1023C125.699 84.8333 125.885 84.5114 125.885 84.1364C125.885 83.8333 125.779 83.5795 125.567 83.375C125.355 83.1667 125.029 83.0114 124.589 82.9091L123.135 82.5682C122.336 82.3788 121.749 82.0852 121.374 81.6875C121.002 81.286 120.817 80.7841 120.817 80.1818C120.817 79.6894 120.955 79.2538 121.232 78.875C121.512 78.4962 121.893 78.1989 122.374 77.983C122.858 77.767 123.408 77.6591 124.021 77.6591C124.885 77.6591 125.563 77.8485 126.055 78.2273C126.552 78.6061 126.904 79.1061 127.112 79.7273Z" fill="white" fill-opacity="0.7"/>
<path d="M19 123C15.5522 123 12.2456 124.37 9.80761 126.808C7.36964 129.246 6 132.552 6 136C6 139.448 7.36964 142.754 9.80761 145.192C12.2456 147.63 15.5522 149 19 149C22.4478 149 25.7544 147.63 28.1924 145.192C30.6304 142.754 32 139.448 32 136C32 132.552 30.6304 129.246 28.1924 126.808C25.7544 124.37 22.4478 123 19 123ZM14.7447 125.113C13.4793 126.491 12.4757 128.47 11.8621 130.8H8.52547C9.82617 128.202 12.0411 126.177 14.7447 125.113ZM7.3 136C7.3 134.629 7.55827 133.322 7.99333 132.1H11.5744C11.3278 133.385 11.2024 134.691 11.2 136C11.2 137.362 11.3387 138.666 11.5727 139.9H7.99333C7.53978 138.65 7.30524 137.33 7.3 136ZM8.52547 141.2H11.8621C12.4757 143.53 13.4793 145.509 14.7447 146.887C12.0411 145.823 9.82617 143.798 8.52547 141.2ZM18.35 147.638C16.1244 147.22 14.1917 144.681 13.202 141.2H18.35V147.638ZM18.35 139.9H12.8935C12.3702 137.326 12.3702 134.674 12.8935 132.1H18.35V139.9ZM18.35 130.8H13.202C14.1917 127.319 16.1244 124.78 18.35 124.362V130.8ZM29.4745 130.8H26.1379C25.5243 128.47 24.5207 126.489 23.2553 125.113C25.9589 126.177 28.1738 128.202 29.4745 130.8ZM19.65 124.362C21.8756 124.78 23.8083 127.319 24.798 130.8H19.65V124.362ZM19.65 132.1H25.1065C25.63 134.674 25.63 137.326 25.1065 139.9H19.65V132.1ZM19.65 147.638V141.2H24.798C23.8083 144.681 21.8739 147.22 19.65 147.638ZM23.2553 146.887C24.5207 145.509 25.5243 143.53 26.1361 141.2H29.4728C28.1725 143.798 25.9582 145.823 23.2553 146.887ZM26.4273 139.9C26.6596 138.666 26.8 137.362 26.8 136C26.8 134.638 26.6613 133.334 26.4273 132.1H30.0067C30.4417 133.322 30.7 134.629 30.7 136C30.7 137.371 30.4417 138.678 30.0067 139.9H26.4273Z" fill="#D9D9D9" fill-opacity="0.4"/>
<path d="M72.2243 125.382L48.6775 134.364C48.6633 134.369 48.6495 134.375 48.6362 134.382C48.445 134.489 47.1129 135.292 48.9925 136.013L49.0109 136.02L54.6177 137.805C54.6607 137.819 54.7062 137.823 54.751 137.818C54.7959 137.813 54.8391 137.798 54.8777 137.774L68.7831 129.222C68.8173 129.201 68.8552 129.187 68.8948 129.181C69.089 129.15 69.6457 129.089 69.2924 129.531C68.8948 130.031 59.3971 138.421 58.3418 139.353C58.2812 139.406 58.2434 139.48 58.2363 139.561L57.7775 144.967C57.777 145.023 57.7897 145.077 57.8144 145.127C57.8392 145.176 57.8752 145.219 57.9197 145.252C57.9831 145.291 58.0574 145.31 58.1319 145.304C58.2065 145.299 58.2773 145.27 58.3342 145.221L61.6668 142.285C61.7198 142.238 61.7868 142.212 61.857 142.208C61.9273 142.205 61.9966 142.225 62.0537 142.266L67.8655 146.426L67.8838 146.439C68.0261 146.524 69.5448 147.396 69.9837 145.449L73.9953 126.645C74.0015 126.585 74.0565 125.931 73.5809 125.544C73.0823 125.138 72.3757 125.343 72.2702 125.365C72.2545 125.369 72.2391 125.375 72.2243 125.382Z" fill="#D9D9D9" fill-opacity="0.4"/>
<path d="M113.338 130.288C113.354 130.535 113.354 130.782 113.354 131.031C113.354 138.621 107.989 147.375 98.177 147.375V147.37C95.2523 147.366 92.3989 146.467 90 144.794C90.4225 144.85 90.845 144.876 91.2691 144.879C93.6709 144.88 96.0044 144.013 97.8942 142.414C95.6127 142.368 93.6107 140.766 92.9104 138.426C93.7099 138.592 94.5354 138.556 95.3186 138.327C92.8307 137.786 91.04 135.431 91.04 132.696V132.623C91.7826 133.068 92.6114 133.315 93.4613 133.343C91.118 131.656 90.3949 128.297 91.8102 125.673C94.5191 129.261 98.515 131.442 102.805 131.674C102.376 129.679 102.963 127.589 104.349 126.186C106.497 124.011 109.877 124.123 111.895 126.435C113.099 126.178 114.247 125.705 115.283 125.041C114.904 126.345 114.073 127.471 112.938 128.218C114.001 128.081 115.034 127.776 116 127.313C115.296 128.454 114.395 129.461 113.338 130.288Z" fill="#D9D9D9" fill-opacity="0.4"/>
<path d="M145 125.167C142.701 125.167 140.497 126.08 138.872 127.705C137.246 129.33 136.333 131.535 136.333 133.833V135.892C136.007 136.176 135.742 136.525 135.555 136.917C135.369 137.308 135.265 137.733 135.25 138.167C135.275 138.795 135.489 139.401 135.864 139.905C136.239 140.41 136.757 140.789 137.352 140.994C138.76 144.363 141.588 146.833 145 146.833H148.25V144.667H145C142.552 144.667 140.331 142.825 139.215 139.911L138.987 139.315L138.348 139.25C138.088 139.213 137.85 139.083 137.679 138.884C137.507 138.684 137.414 138.43 137.417 138.167C137.418 137.978 137.468 137.792 137.563 137.629C137.658 137.465 137.795 137.33 137.958 137.235L138.5 136.921V134.917C138.5 134.629 138.614 134.354 138.817 134.151C139.02 133.947 139.296 133.833 139.583 133.833H150.417C150.704 133.833 150.98 133.947 151.183 134.151C151.386 134.354 151.5 134.629 151.5 134.917V140.333H147.069C146.971 140.058 146.8 139.813 146.574 139.627C146.349 139.44 146.077 139.318 145.787 139.273C145.498 139.229 145.202 139.263 144.93 139.372C144.659 139.482 144.422 139.663 144.245 139.896C144.068 140.129 143.957 140.406 143.924 140.697C143.891 140.988 143.937 141.282 144.058 141.549C144.179 141.816 144.369 142.045 144.609 142.212C144.849 142.38 145.13 142.479 145.423 142.5H153.667C154.241 142.5 154.792 142.272 155.199 141.865C155.605 141.459 155.833 140.908 155.833 140.333V138.167C155.833 137.592 155.605 137.041 155.199 136.635C154.792 136.228 154.241 136 153.667 136V133.833C153.667 131.535 152.754 129.33 151.128 127.705C149.503 126.08 147.299 125.167 145 125.167Z" fill="#D9D9D9" fill-opacity="0.4"/>
<defs>
<linearGradient id="paint0_linear_1_2942" x1="0.147186" y1="61" x2="163.662" y2="98.7733" gradientUnits="userSpaceOnUse">
<stop stop-color="#B980F1"/>
<stop offset="1" stop-color="#6659FC"/>
</linearGradient>
</defs>
</svg>
