<svg width="240" height="48" viewBox="0 0 240 48" fill="none" xmlns="http://www.w3.org/2000/svg">
<rect width="240" height="48" fill="url(#paint0_linear_1_2924)" fill-opacity="0.4"/>
<path d="M18 13.5C18 13.1022 18.158 12.7206 18.4393 12.4393C18.7206 12.158 19.1022 12 19.5 12H25.5C25.8978 12 26.2794 12.158 26.5607 12.4393C26.842 12.7206 27 13.1022 27 13.5V21C27 21.3978 26.842 21.7794 26.5607 22.0607C26.2794 22.342 25.8978 22.5 25.5 22.5H19.5C19.1022 22.5 18.7206 22.342 18.4393 22.0607C18.158 21.7794 18 21.3978 18 21V13.5ZM33 13.5C33 13.1022 33.158 12.7206 33.4393 12.4393C33.7206 12.158 34.1022 12 34.5 12H40.5C40.8978 12 41.2794 12.158 41.5607 12.4393C41.842 12.7206 42 13.1022 42 13.5V16.5C42 16.8978 41.842 17.2794 41.5607 17.5607C41.2794 17.842 40.8978 18 40.5 18H34.5C34.1022 18 33.7206 17.842 33.4393 17.5607C33.158 17.2794 33 16.8978 33 16.5V13.5ZM18 30C18 29.6022 18.158 29.2206 18.4393 28.9393C18.7206 28.658 19.1022 28.5 19.5 28.5H25.5C25.8978 28.5 26.2794 28.658 26.5607 28.9393C26.842 29.2206 27 29.6022 27 30V34.5C27 34.8978 26.842 35.2794 26.5607 35.5607C26.2794 35.842 25.8978 36 25.5 36H19.5C19.1022 36 18.7206 35.842 18.4393 35.5607C18.158 35.2794 18 34.8978 18 34.5V30ZM33 25.5C33 25.1022 33.158 24.7206 33.4393 24.4393C33.7206 24.158 34.1022 24 34.5 24H40.5C40.8978 24 41.2794 24.158 41.5607 24.4393C41.842 24.7206 42 25.1022 42 25.5V34.5C42 34.8978 41.842 35.2794 41.5607 35.5607C41.2794 35.842 40.8978 36 40.5 36H34.5C34.1022 36 33.7206 35.842 33.4393 35.5607C33.158 35.2794 33 34.8978 33 34.5V25.5Z" stroke="url(#paint1_linear_1_2924)" stroke-opacity="0.61" stroke-width="2"/>
<path d="M65.6705 17.8636V29.5H64.0568L58.142 20.9659H58.0341V29.5H56.2784V17.8636H57.9034L63.8239 26.4091H63.9318V17.8636H65.6705ZM71.8565 29.6761C70.9967 29.6761 70.2562 29.4924 69.6349 29.125C69.0175 28.7538 68.5402 28.233 68.2031 27.5625C67.8698 26.8883 67.7031 26.0985 67.7031 25.1932C67.7031 24.2992 67.8698 23.5114 68.2031 22.8295C68.5402 22.1477 69.0099 21.6155 69.6122 21.233C70.2183 20.8504 70.9266 20.6591 71.7372 20.6591C72.2296 20.6591 72.7069 20.7405 73.169 20.9034C73.6312 21.0663 74.0459 21.322 74.4134 21.6705C74.7808 22.0189 75.0705 22.4716 75.2827 23.0284C75.4948 23.5814 75.6009 24.2538 75.6009 25.0455V25.6477H68.6634V24.375H73.9361C73.9361 23.928 73.8452 23.5322 73.6634 23.1875C73.4815 22.839 73.2259 22.5644 72.8963 22.3636C72.5705 22.1629 72.188 22.0625 71.7486 22.0625C71.2713 22.0625 70.8546 22.1799 70.4986 22.4148C70.1463 22.6458 69.8736 22.9489 69.6804 23.3239C69.491 23.6951 69.3963 24.0985 69.3963 24.5341V25.5284C69.3963 26.1117 69.4986 26.608 69.7031 27.017C69.9115 27.4261 70.2012 27.7386 70.5724 27.9545C70.9437 28.1667 71.3774 28.2727 71.8736 28.2727C72.1955 28.2727 72.4891 28.2273 72.7543 28.1364C73.0194 28.0417 73.2486 27.9015 73.4418 27.7159C73.6349 27.5303 73.7827 27.3011 73.8849 27.0284L75.4929 27.3182C75.3641 27.7917 75.133 28.2064 74.7997 28.5625C74.4702 28.9148 74.0554 29.1894 73.5554 29.3864C73.0592 29.5795 72.4929 29.6761 71.8565 29.6761ZM79.3622 29.5L76.794 20.7727H78.5497L80.2599 27.1818H80.3452L82.0611 20.7727H83.8168L85.5213 27.1534H85.6065L87.3054 20.7727H89.0611L86.4986 29.5H84.7656L82.9929 23.1989H82.8622L81.0895 29.5H79.3622ZM95.044 29.5V17.8636H99.1918C100.097 17.8636 100.847 18.0284 101.442 18.358C102.036 18.6875 102.482 19.1383 102.777 19.7102C103.072 20.2784 103.22 20.9186 103.22 21.6307C103.22 22.3466 103.071 22.9905 102.771 23.5625C102.476 24.1307 102.029 24.5814 101.43 24.9148C100.836 25.2443 100.088 25.4091 99.1861 25.4091H96.3338V23.9205H99.027C99.599 23.9205 100.063 23.822 100.419 23.625C100.775 23.4242 101.036 23.1515 101.203 22.8068C101.37 22.4621 101.453 22.0701 101.453 21.6307C101.453 21.1913 101.37 20.8011 101.203 20.4602C101.036 20.1193 100.773 19.8523 100.413 19.6591C100.057 19.4659 99.5876 19.3693 99.0043 19.3693H96.7997V29.5H95.044ZM107.604 29.6932C107.051 29.6932 106.551 29.5909 106.104 29.3864C105.657 29.178 105.303 28.8769 105.041 28.483C104.784 28.089 104.655 27.6061 104.655 27.0341C104.655 26.5417 104.75 26.1364 104.939 25.8182C105.128 25.5 105.384 25.2481 105.706 25.0625C106.028 24.8769 106.388 24.7367 106.786 24.642C107.183 24.5473 107.589 24.4754 108.001 24.4261C108.524 24.3655 108.948 24.3163 109.274 24.2784C109.6 24.2367 109.837 24.1705 109.984 24.0795C110.132 23.9886 110.206 23.8409 110.206 23.6364V23.5966C110.206 23.1004 110.066 22.7159 109.786 22.4432C109.509 22.1705 109.096 22.0341 108.547 22.0341C107.975 22.0341 107.524 22.161 107.195 22.4148C106.869 22.6648 106.643 22.9432 106.518 23.25L104.922 22.8864C105.111 22.3561 105.388 21.928 105.751 21.6023C106.119 21.2727 106.541 21.0341 107.018 20.8864C107.496 20.7348 107.998 20.6591 108.524 20.6591C108.873 20.6591 109.242 20.7008 109.632 20.7841C110.026 20.8636 110.393 21.0114 110.734 21.2273C111.079 21.4432 111.361 21.7519 111.581 22.1534C111.801 22.5511 111.911 23.0682 111.911 23.7045V29.5H110.251V28.3068H110.183C110.073 28.5265 109.909 28.7424 109.689 28.9545C109.469 29.1667 109.187 29.3428 108.842 29.483C108.498 29.6231 108.085 29.6932 107.604 29.6932ZM107.973 28.3295C108.443 28.3295 108.844 28.2367 109.178 28.0511C109.515 27.8655 109.77 27.6231 109.945 27.3239C110.123 27.0208 110.212 26.697 110.212 26.3523V25.2273C110.151 25.2879 110.034 25.3447 109.859 25.3977C109.689 25.447 109.494 25.4905 109.274 25.5284C109.054 25.5625 108.84 25.5947 108.632 25.625C108.424 25.6515 108.25 25.6742 108.109 25.6932C107.78 25.7348 107.479 25.8049 107.206 25.9034C106.937 26.0019 106.721 26.1439 106.558 26.3295C106.399 26.5114 106.32 26.7538 106.32 27.0568C106.32 27.4773 106.475 27.7955 106.786 28.0114C107.096 28.2235 107.492 28.3295 107.973 28.3295ZM114.173 29.5V20.7727H115.872V29.5H114.173ZM115.031 19.4261C114.736 19.4261 114.482 19.3277 114.27 19.1307C114.062 18.9299 113.957 18.6913 113.957 18.4148C113.957 18.1345 114.062 17.8958 114.27 17.6989C114.482 17.4981 114.736 17.3977 115.031 17.3977C115.327 17.3977 115.579 17.4981 115.787 17.6989C115.999 17.8958 116.105 18.1345 116.105 18.4148C116.105 18.6913 115.999 18.9299 115.787 19.1307C115.579 19.3277 115.327 19.4261 115.031 19.4261ZM118.158 29.5V20.7727H119.8V22.1591H119.891C120.05 21.6894 120.33 21.3201 120.732 21.0511C121.137 20.7784 121.595 20.642 122.107 20.642C122.213 20.642 122.338 20.6458 122.482 20.6534C122.629 20.661 122.745 20.6705 122.828 20.6818V22.3068C122.76 22.2879 122.639 22.267 122.464 22.2443C122.29 22.2178 122.116 22.2045 121.942 22.2045C121.54 22.2045 121.182 22.2898 120.868 22.4602C120.557 22.6269 120.311 22.8598 120.129 23.1591C119.947 23.4545 119.857 23.7917 119.857 24.1705V29.5H118.158ZM130.838 22.9034L129.298 23.1761C129.234 22.9792 129.132 22.7917 128.991 22.6136C128.855 22.4356 128.67 22.2898 128.435 22.1761C128.2 22.0625 127.906 22.0057 127.554 22.0057C127.073 22.0057 126.671 22.1136 126.349 22.3295C126.027 22.5417 125.866 22.8163 125.866 23.1534C125.866 23.4451 125.974 23.6799 126.19 23.858C126.406 24.036 126.755 24.1818 127.236 24.2955L128.622 24.6136C129.425 24.7992 130.024 25.0852 130.418 25.4716C130.812 25.858 131.009 26.3598 131.009 26.9773C131.009 27.5 130.857 27.9659 130.554 28.375C130.255 28.7803 129.836 29.0985 129.298 29.3295C128.764 29.5606 128.145 29.6761 127.44 29.6761C126.463 29.6761 125.666 29.4678 125.048 29.0511C124.431 28.6307 124.052 28.0341 123.912 27.2614L125.554 27.0114C125.656 27.4394 125.866 27.7633 126.185 27.983C126.503 28.1989 126.918 28.3068 127.429 28.3068C127.986 28.3068 128.431 28.1913 128.764 27.9602C129.098 27.7254 129.264 27.4394 129.264 27.1023C129.264 26.8295 129.162 26.6004 128.957 26.4148C128.757 26.2292 128.448 26.089 128.031 25.9943L126.554 25.6705C125.74 25.4848 125.137 25.1894 124.747 24.7841C124.361 24.3788 124.168 23.8655 124.168 23.2443C124.168 22.7292 124.312 22.2784 124.599 21.892C124.887 21.5057 125.285 21.2045 125.793 20.9886C126.3 20.7689 126.882 20.6591 127.537 20.6591C128.48 20.6591 129.223 20.8636 129.764 21.2727C130.306 21.678 130.664 22.2216 130.838 22.9034Z" fill="white"/>
<defs>
<linearGradient id="paint0_linear_1_2924" x1="5.41374e-07" y1="24" x2="256.652" y2="-62.0711" gradientUnits="userSpaceOnUse">
<stop stop-color="#6895FF" stop-opacity="0"/>
<stop offset="0.865292" stop-color="#C7AEFC"/>
<stop offset="1" stop-color="#905BFF"/>
</linearGradient>
<linearGradient id="paint1_linear_1_2924" x1="17.9481" y1="12" x2="43.2274" y2="13.4331" gradientUnits="userSpaceOnUse">
<stop stop-color="#B980F1"/>
<stop offset="1" stop-color="#6659FC"/>
</linearGradient>
</defs>
</svg>
